:SAMPLES-PER-SECOND 30
:FULLY-SPECIFIED
:DEGREES
180
root  -39.8568 34.8217 9.81989 -151.521 82.4269 -177.216
RightUpLeg  -32.4982 -12.3741 4.98533
RightLeg  6.56018 -0.98285 -0.048228
RightFoot  10.2351 0.0513826 -0.00887952
RightToes  -22.2677 -0.0951033 -0.1948
Spine  4.46953 1.24383 -1.6275
Spine1  8.68178 2.83321 -2.77992
HEad  -42.9524 -2.55487 -3.07472
LeftShoulder1  -1.94126e-019 -3.10601e-018 -2.51263e-017
LeftArm  8.58243 13.9035 -71.9246
LeftForeArm  53.7751 -77.8184 -57.1613
LeftHand  -0.0514803 1.41703 1.30073
RightShoulder  -4.96962e-017 0 -2.36833e-017
RightArm  2.76601 -18.7348 69.3681
RightForeArm  91.9782 80.1052 60.7468
RightHand  -0.126263 -2.83311 -5.17105
LeftUpLeg  -32.9917 2.89796 1.4237
LeftLeg  11.7503 15.3765 2.15107
LeftFoot  8.68134 -0.181376 2.57318
LeftToes  -22.0912 1.83942e-006 5.51297e-008
181
root  -40.0236 34.7877 10.0007 -149.603 81.8299 -176.175
RightUpLeg  -33.8646 -12.255 5.63294
RightLeg  7.03622 -1.33839 -0.077201
RightFoot  10.1002 0.0560007 -0.0683857
RightToes  -21.9078 -0.0923475 -0.191685
Spine  4.83945 1.37114 -1.62058
Spine1  9.3892 3.10531 -2.77627
HEad  -40.9013 -1.52952 -4.32922
LeftShoulder1  -1.94126e-019 -3.10601e-018 -2.51263e-017
LeftArm  6.78486 12.6785 -72.7332
LeftForeArm  43.1442 -75.4385 -43.5311
LeftHand  -0.0852226 1.30114 2.2543
RightShoulder  -4.96962e-017 0 -2.36833e-017
RightArm  2.48314 -15.3347 69.6377
RightForeArm  71.7577 76.6037 39.3935
RightHand  -0.134633 -3.00903 -5.94206
LeftUpLeg  -34.8145 2.56112 1.99968
LeftLeg  12.8518 15.2683 2.43241
LeftFoot  8.78888 -0.183341 2.59003
LeftToes  -22.6099 1.83942e-006 5.51297e-008
182
root  -40.1677 34.7536 10.165 -147.754 81.1394 -175.225
RightUpLeg  -35.2566 -12.3118 6.42004
RightLeg  7.52633 -1.72738 -0.114773
RightFoot  9.92084 0.0606217 -0.13162
RightToes  -21.515 -0.0900642 -0.18889
Spine  5.17065 1.50658 -1.61902
Spine1  10.0246 3.39225 -2.78041
HEad  -39.2183 -0.813761 -5.41664
LeftShoulder1  -1.94126e-019 -3.10601e-018 -2.51263e-017
LeftArm  5.24254 11.1889 -73.5886
LeftForeArm  34.7816 -71.9463 -32.9022
LeftHand  -0.124977 1.3683 3.44838
RightShoulder  -4.96962e-017 0 -2.36833e-017
RightArm  1.78076 -12.2319 70.1618
RightForeArm  59.5758 71.4644 26.6177
RightHand  -0.143182 -2.99217 -6.32886
LeftUpLeg  -36.6715 2.53572 2.41822
LeftLeg  13.9606 14.7895 2.64854
LeftFoot  8.78069 -0.178384 2.51359
LeftToes  -22.6673 1.83942e-006 5.51297e-008
183
root  -40.3202 34.7225 10.3507 -145.621 80.46 -174.092
RightUpLeg  -36.7344 -11.9233 7.0654
RightLeg  8.05018 -2.43513 -0.184579
RightFoot  9.7976 0.0686435 -0.247177
RightToes  -21.1159 -0.0867781 -0.185733
Spine  5.44907 1.54328 -1.58971
Spine1  10.5674 3.48163 -2.7417
HEad  -37.5228 0.0317135 -6.82137
LeftShoulder1  -1.94126e-019 -3.10601e-018 -2.51263e-017
LeftArm  3.64872 9.52772 -74.2653
LeftForeArm  29.0587 -67.7293 -25.3929
LeftHand  -0.146156 1.42406 4.11924
RightShoulder  -4.96962e-017 0 -2.36833e-017
RightArm  1.19442 -9.03584 71.032
RightForeArm  52.0982 64.9194 18.5394
RightHand  -0.155837 -3.27176 -7.83647
LeftUpLeg  -38.6647 2.58128 2.92531
LeftLeg  15.088 14.2375 2.83851
LeftFoot  8.89934 -0.174145 2.45981
LeftToes  -23.1111 1.83942e-006 5.51297e-008
184
root  -40.4388 34.6919 10.516 -143.993 79.7583 -173.203
RightUpLeg  -37.9241 -11.6676 7.65424
RightLeg  8.62071 -3.06165 -0.262968
RightFoot  9.58476 0.0749864 -0.34249
RightToes  -20.4723 -0.0831302 -0.180151
Spine  5.82347 1.6225 -1.55701
Spine1  11.293 3.65758 -2.69323
HEad  -36.276 0.5669 -8.09169
LeftShoulder1  -1.94126e-019 -3.10601e-018 -2.51263e-017
LeftArm  2.19499 7.53394 -75.082
LeftForeArm  24.8347 -62.6961 -19.7485
LeftHand  -0.160098 1.36815 4.47793
RightShoulder  -4.96962e-017 0 -2.36833e-017
RightArm  -0.146185 -6.01092 72.2498
RightForeArm  47.3336 57.7862 13.4922
RightHand  -0.129205 -3.74211 -8.06208
LeftUpLeg  -40.3754 2.65074 3.36161
LeftLeg  16.2517 13.669 3.01396
LeftFoot  8.92197 -0.167493 2.37711
LeftToes  -23.1585 1.83942e-006 5.51297e-008
185
root  -40.5499 34.6558 10.6798 -141.952 78.8896 -172.028
RightUpLeg  -39.2418 -11.6204 8.51076
RightLeg  9.15279 -3.53777 -0.337084
RightFoot  9.35616 0.0790886 -0.409555
RightToes  -19.7299 -0.0799583 -0.174647
Spine  6.15042 1.62546 -1.45845
Spine1  11.939 3.67476 -2.52548
HEad  -35.3886 1.11869 -9.33742
LeftShoulder1  -1.94126e-019 -3.10601e-018 -2.51263e-017
LeftArm  1.01036 5.44998 -75.8021
LeftForeArm  21.7463 -57.371 -15.7382
LeftHand  -0.17834 1.34096 4.98222
RightShoulder  -4.96962e-017 0 -2.36833e-017
RightArm  -1.38065 -3.40149 73.3895
RightForeArm  45.4227 50.5848 10.039
RightHand  -0.147163 -3.65207 -8.9062
LeftUpLeg  -42.2535 2.74564 3.87658
LeftLeg  17.4297 13.0241 3.15346
LeftFoot  8.85501 -0.158275 2.26025
LeftToes  -22.8207 1.83942e-006 5.51297e-008
186
root  -40.6454 34.6271 10.8241 -140.344 78.1932 -171.508
RightUpLeg  -40.6778 -11.4904 9.19164
RightLeg  9.54399 -3.89905 -0.398425
RightFoot  9.18469 0.0816966 -0.459069
RightToes  -19.3778 -0.0780175 -0.171801
Spine  6.3513 1.65284 -1.43722
Spine1  12.3411 3.7357 -2.49195
HEad  -34.1235 1.57367 -10.5451
LeftShoulder1  -1.94126e-019 -3.10601e-018 -2.51263e-017
LeftArm  -0.000721062 3.48832 -76.5007
LeftForeArm  20.0452 -52.0795 -12.7943
LeftHand  -0.186904 1.49959 5.42467
RightShoulder  -4.96962e-017 0 -2.36833e-017
RightArm  -2.77856 -0.917828 74.6821
RightForeArm  43.8587 43.1702 7.47619
RightHand  -0.151086 -3.71958 -9.54766
LeftUpLeg  -44.1551 2.8267 4.24768
LeftLeg  18.3367 12.4716 3.22967
LeftFoot  8.93696 -0.152038 2.19261
LeftToes  -22.8417 1.83942e-006 5.51297e-008
187
root  -40.6979 34.6032 10.9477 -139.332 77.7942 -171.09
RightUpLeg  -41.4632 -11.37 9.65491
RightLeg  9.74928 -4.08838 -0.432586
RightFoot  9.05656 0.0821642 -0.481822
RightToes  -19.1694 -0.0769912 -0.170378
Spine  6.7276 1.68032 -1.42959
Spine1  13.0812 3.81638 -2.49722
HEad  -33.0867 1.97001 -11.688
LeftShoulder1  -1.94126e-019 -3.10601e-018 -2.51263e-017
LeftArm  -1.12956 1.53039 -77.131
LeftForeArm  19.3571 -46.9338 -10.5314
LeftHand  -0.205591 1.48046 5.96396
RightShoulder  -4.96962e-017 0 -2.36833e-017
RightArm  -4.07608 1.84222 75.8988
RightForeArm  43.4374 35.7314 5.41878
RightHand  -0.155561 -3.65624 -9.51439
LeftUpLeg  -45.3305 3.13722 4.40266
LeftLeg  19.0193 11.9589 3.25004
LeftFoot  8.95002 -0.145119 2.11435
LeftToes  -22.7309 1.83942e-006 5.51297e-008
188
root  -40.755 34.5535 11.0864 -137.478 77.0727 -169.938
RightUpLeg  -42.593 -11.3428 10.5017
RightLeg  10.3677 -4.32091 -0.504412
RightFoot  8.74604 0.0800547 -0.490313
RightToes  -18.6627 -0.0761183 -0.169193
Spine  7.09268 1.89077 -1.27039
Spine1  13.7433 4.43028 -2.41158
HEad  -32.2421 2.04287 -12.3985
LeftShoulder1  -1.94126e-019 -3.10601e-018 -2.51263e-017
LeftArm  -1.63084 -0.235067 -77.6405
LeftForeArm  19.4758 -42.8007 -8.99325
LeftHand  -0.224761 1.39117 6.40592
RightShoulder  -4.96962e-017 0 -2.36833e-017
RightArm  -5.51815 4.02255 76.6342
RightForeArm  43.4614 29.7549 4.01481
RightHand  -0.141603 -3.74571 -8.99732
LeftUpLeg  -46.8834 3.34793 4.88094
LeftLeg  20.0825 11.3692 3.31778
LeftFoot  8.7604 -0.135585 1.99252
LeftToes  -22.6784 1.83942e-006 5.51297e-008
189
root  -40.8013 34.4781 11.1763 -137.013 76.3957 -169.978
RightUpLeg  -43.8278 -11.4033 10.9281
RightLeg  11.6945 -4.60025 -0.645351
RightFoot  8.04968 0.0727043 -0.475795
RightToes  -18.3726 -0.0753883 -0.16823
Spine  7.57229 2.13473 -1.09832
Spine1  14.5941 5.14721 -2.41001
HEad  -31.3127 1.9755 -12.8819
LeftShoulder1  -1.94126e-019 -3.10601e-018 -2.51263e-017
LeftArm  -1.7378 -2.10824 -78.0428
LeftForeArm  19.3046 -39.1074 -7.81532
LeftHand  -0.240488 1.32217 6.76013
RightShoulder  -4.96962e-017 0 -2.36833e-017
RightArm  -6.37366 5.33883 76.8232
RightForeArm  44.1638 26.7205 3.34068
RightHand  -0.151324 -3.68143 -9.35287
LeftUpLeg  -48.2444 2.98238 5.36087
LeftLeg  21.3278 11.1824 3.5271
LeftFoot  8.43594 -0.128891 1.90907
LeftToes  -22.552 1.83942e-006 5.51297e-008
190
root  -40.8531 34.4334 11.2531 -136.274 75.4861 -170.114
RightUpLeg  -45.1345 -11.7109 11.6085
RightLeg  12.3688 -4.71573 -0.718256
RightFoot  7.7023 0.0688318 -0.46464
RightToes  -18.3951 -0.0747909 -0.16747
Spine  7.84325 2.1788 -0.86732
Spine1  15.1013 5.35497 -2.18319
HEad  -30.2397 1.93533 -13.3301
LeftShoulder1  -1.94126e-019 -3.10601e-018 -2.51263e-017
LeftArm  -1.3232 -3.75688 -78.2165
LeftForeArm  18.766 -35.8239 -6.90263
LeftHand  -0.26598 1.1407 7.1962
RightShoulder  -4.96962e-017 0 -2.36833e-017
RightArm  -7.09461 6.19223 76.9659
RightForeArm  44.0266 25.2806 3.05897
RightHand  -0.147049 -3.78991 -9.65878
LeftUpLeg  -49.8674 2.83596 5.67023
LeftLeg  22.1717 10.6702 3.53981
LeftFoot  8.394 -0.122291 1.82791
LeftToes  -22.5539 1.83942e-006 5.51297e-008
191
root  -40.8993 34.3974 11.3259 -135.909 75.0945 -170.145
RightUpLeg  -45.8978 -11.3349 11.6433
RightLeg  13.0636 -5.31105 -0.874761
RightFoot  7.45123 0.0704055 -0.520325
RightToes  -18.2775 -0.0743154 -0.166898
Spine  8.24224 2.35051 -0.703569
Spine1  15.8525 5.79494 -2.01907
HEad  -29.2073 1.6097 -13.3645
LeftShoulder1  -1.94126e-019 -3.10601e-018 -2.51263e-017
LeftArm  -0.590013 -5.74499 -78.4963
LeftForeArm  18.1476 -32.1811 -5.97873
LeftHand  -0.269656 1.34182 7.63802
RightShoulder  -4.96962e-017 0 -2.36833e-017
RightArm  -7.35323 6.7802 76.861
RightForeArm  44.1458 24.9187 2.98198
RightHand  -0.152924 -3.76581 -9.95595
LeftUpLeg  -50.8282 3.43472 5.40154
LeftLeg  22.783 9.71252 3.34031
LeftFoot  8.31851 -0.111122 1.6693
LeftToes  -22.2519 1.83942e-006 5.51297e-008
192
root  -40.9471 34.366 11.3726 -135.486 74.5354 -170.278
RightUpLeg  -46.8005 -11.1252 11.8051
RightLeg  13.6947 -5.93028 -1.0436
RightFoot  7.19457 0.0727967 -0.571164
RightToes  -18.1834 -0.0739514 -0.166497
Spine  8.62977 2.4067 -0.45346
Spine1  16.607 5.99434 -1.70906
HEad  -28.109 1.42607 -13.6197
LeftShoulder1  -1.94126e-019 -3.10601e-018 -2.51263e-017
LeftArm  -0.530263 -7.55774 -78.9079
LeftForeArm  18.1957 -29.403 -5.29817
LeftHand  -0.26873 1.34692 7.51717
RightShoulder  -4.96962e-017 0 -2.36833e-017
RightArm  -7.05038 7.66033 76.5121
RightForeArm  43.3993 25.2043 3.07311
RightHand  -0.160053 -3.61549 -9.60425
LeftUpLeg  -51.9053 3.73501 5.25649
LeftLeg  23.2832 8.95798 3.17043
LeftFoot  8.24558 -0.102462 1.54671
LeftToes  -21.8721 1.83942e-006 5.51297e-008
193
root  -41.0053 34.3306 11.3646 -135.516 73.9618 -170.974
RightUpLeg  -47.9577 -11.4617 12.0566
RightLeg  14.5035 -5.95214 -1.1343
RightFoot  6.8328 0.0692389 -0.533535
RightToes  -18.3134 -0.0736883 -0.166249
Spine  8.92757 2.353 -0.219273
Spine1  17.1762 5.96247 -1.43704
HEad  -26.7301 1.52189 -13.5519
LeftShoulder1  -1.94126e-019 -3.10601e-018 -2.51263e-017
LeftArm  -0.642047 -9.05197 -79.2207
LeftForeArm  18.2178 -27.4593 -4.84602
LeftHand  -0.264214 1.29573 7.40079
RightShoulder  -4.96962e-017 0 -2.36833e-017
RightArm  -6.05772 8.69267 76.1102
RightForeArm  42.9991 25.6055 3.17161
RightHand  -0.169194 -3.51581 -9.68801
LeftUpLeg  -52.9462 3.40727 5.28354
LeftLeg  23.6214 8.71579 3.14311
LeftFoot  8.26578 -0.100001 1.5183
LeftToes  -21.949 1.83942e-006 5.51297e-008
194
root  -41.0873 34.2998 11.3459 -134.923 73.7732 -171.17
RightUpLeg  -49.2499 -11.5407 12.3159
RightLeg  15.2079 -5.88281 -1.19634
RightFoot  6.64354 0.0663861 -0.502816
RightToes  -18.3271 -0.0735159 -0.166139
Spine  9.09554 2.39462 -0.111957
Spine1  17.4616 6.10857 -1.34639
HEad  -25.0986 1.52515 -12.9855
LeftShoulder1  -1.94126e-019 -3.10601e-018 -2.51263e-017
LeftArm  -0.382945 -10.2969 -79.207
LeftForeArm  18.1906 -26.5948 -4.65105
LeftHand  -0.264956 1.26089 7.36327
RightShoulder  -4.96962e-017 0 -2.36833e-017
RightArm  -5.06748 9.82936 75.847
RightForeArm  43.097 26.092 3.26435
RightHand  -0.169334 -3.47819 -9.50876
LeftUpLeg  -54.0863 3.43203 5.13497
LeftLeg  23.9667 8.53182 3.13517
LeftFoot  8.20384 -0.0974031 1.48638
LeftToes  -21.7145 1.83942e-006 5.51297e-008
